<svg version="1.1" xmlns="http://www.w3.org/2000/svg" viewBox="0 0 722.71484375 1562.2460504605754" width="722.71484375" height="1562.2460504605754">
  <!-- svg-source:excalidraw -->
  
  <defs>
    <style>
      @font-face {
        font-family: "Virgil";
        src: url("https://excalidraw.com/Virgil.woff2");
      }
      @font-face {
        font-family: "Cascadia";
        src: url("https://excalidraw.com/Cascadia.woff2");
      }
    </style>
  </defs>
  <rect x="0" y="0" width="722.71484375" height="1562.2460504605754" fill="transparent"></rect><g transform="translate(86.05276948018991 18.260201590401493) rotate(0 45 12.5)"><text x="0" y="18" font-family="Virgil, Segoe UI Emoji" font-size="20px" fill="#000000" text-anchor="start" style="white-space: pre;" direction="ltr">Customer</text></g><g transform="translate(537.2331080218596 18.260201590401493) rotate(0 35.5 12.5)"><text x="0" y="18" font-family="Virgil, Segoe UI Emoji" font-size="20px" fill="#000000" text-anchor="start" style="white-space: pre;" direction="ltr">Mailgrip</text></g><g transform="translate(302.95511323019355 18.260201590401493) rotate(0 42 12.5)"><text x="0" y="18" font-family="Virgil, Segoe UI Emoji" font-size="20px" fill="#000000" text-anchor="start" style="white-space: pre;" direction="ltr">Gumroad</text></g><g stroke-linecap="round" transform="translate(73.71866474454555 10.823567708333258) rotate(0 56.09049479166788 19.397786458333258)"><path d="M0.3 1.95 C39.2 0.32, 74.4 -0.15, 112.37 1.3 M0.04 0.02 C28.21 0.94, 58.38 0.06, 112.97 0.8 M111.83 -0.95 C111.51 7.56, 111.53 20.21, 112.8 39.09 M112.42 -0.46 C111.24 13.96, 111.8 27.54, 111.59 38.45 M113.06 39.42 C78.3 37.92, 46.72 39.29, 1.57 38.46 M111.38 39.68 C80.25 37.8, 49.71 39.43, -0.82 38.6 M0.81 40.37 C-0.09 24.7, 0.01 10.3, 1.4 -0.42 M0.13 38.19 C1 24.97, 0.45 10.69, 0.07 -0.83" stroke="#000000" stroke-width="1" fill="none"></path></g><g stroke-linecap="round" transform="translate(287.35928974454555 10) rotate(0 56.09049479166788 19.397786458333258)"><path d="M1.95 1.43 C31.22 -1.32, 61.83 0.02, 113.48 -0.84 M0.02 -0.7 C44.19 0.51, 86.55 0.75, 112.98 -0.63 M111.23 -0.64 C110.67 10.73, 114.15 23.33, 112.48 39.69 M111.72 -0.68 C113.04 8.88, 113.25 17.41, 111.84 38.66 M112.8 37.02 C82.78 38.04, 56.65 40.86, -0.33 38.36 M113.06 38.06 C77.96 37.82, 46.22 37.07, -0.19 39.41 M1.57 38.5 C0.06 29.01, -0.31 21, -0.42 1.31 M-0.61 39.72 C0.48 28.31, 0.38 17.14, -0.83 -0.76" stroke="#000000" stroke-width="1" fill="none"></path></g><g stroke-linecap="round" transform="translate(518.5318157862116 11.754557291666515) rotate(0 56.09049479166788 19.397786458333258)"><path d="M1.43 0.14 C30.73 -1.42, 63.94 0.21, 111.34 1.71 M-0.7 0.95 C34.32 0.05, 68.34 0.78, 111.55 -0.07 M111.54 -1.62 C111.49 14.66, 112.73 25.91, 113.07 37.43 M111.5 0.59 C112.16 15.12, 111.69 28.31, 112.04 38.25 M110.4 36.89 C66.93 38.6, 25.75 38.81, -0.44 38.75 M111.45 37.95 C79.89 40.56, 46.94 39.59, 0.62 38.27 M-0.29 38.72 C-0.35 28.09, 1.24 17.86, 1.31 -0.4 M0.92 39.15 C0.32 28.66, 0.02 17.18, -0.76 -0.24" stroke="#000000" stroke-width="1" fill="none"></path></g><g stroke-linecap="round"><g transform="translate(125.90820312499955 49.195470897344876) rotate(0 0.49769450482784805 750.4731837859376)"><path d="M1.1 1.19 C0.97 251.16, -0.48 1250.29, -0.69 1500.18 M0.21 0.77 C0.47 250.38, 1.86 1248.81, 1.67 1498.48" stroke="#495057" stroke-width="1" fill="none"></path></g></g><g stroke-linecap="round"><g transform="translate(347.70117187499955 49.19547089734476) rotate(0 0.14637329556046552 750.9221307347345)"><path d="M0.56 -0.11 C0.75 250.43, 0.84 1251.4, 0.9 1502.03 M-0.6 -1.21 C-0.48 249.55, 0.22 1252.57, 0.42 1503.05" stroke="#495057" stroke-width="1" fill="none"></path></g></g><g stroke-linecap="round"><g transform="translate(572.7871093749995 49.531408397344876) rotate(0 0.520323408538502 749.6896264028455)"><path d="M0.86 0.51 C1.25 250.57, 1.2 1249.72, 1.16 1499.64 M-0.15 -0.27 C0.29 249.49, 0.77 1247.99, 0.83 1497.72" stroke="#495057" stroke-width="1" fill="none"></path></g></g><g stroke-linecap="round"><g transform="translate(131.66994211686176 151.75731985567904) rotate(0 107.51008467447014 -0.4515065564829115)"><path d="M-1.05 -0.5 C34.53 -0.43, 177.7 1.03, 213.82 0.95 M0.61 -1.81 C36.53 -2.11, 180.27 -0.94, 216.07 -0.67" stroke="#000000" stroke-width="1" fill="none"></path></g><g transform="translate(131.66994211686176 151.75731985567904) rotate(0 107.51008467447014 -0.4515065564829115)"><path d="M186.97 7.9 C198.63 7.92, 204.7 1.26, 214.25 -0.46 M188.16 10.13 C198.1 5.8, 206.57 2.02, 216.88 -0.41" stroke="#000000" stroke-width="1" fill="none"></path></g><g transform="translate(131.66994211686176 151.75731985567904) rotate(0 107.51008467447014 -0.4515065564829115)"><path d="M187.12 -12.62 C198.83 -5.86, 204.85 -5.78, 214.25 -0.46 M188.31 -10.39 C198.28 -7.81, 206.69 -4.67, 216.88 -0.41" stroke="#000000" stroke-width="1" fill="none"></path></g></g><g stroke-linecap="round"><g transform="translate(351.36467837379155 224.82860891817904) rotate(0 110.48809712867501 -0.09674887855567249)"><path d="M0.78 -1.13 C37.81 -1.28, 184.58 -0.8, 221.25 -0.49 M-0.28 0.88 C36.66 0.87, 182.86 1.14, 220.13 0.79" stroke="#000000" stroke-width="1" fill="none"></path></g><g transform="translate(351.36467837379155 224.82860891817904) rotate(0 110.48809712867501 -0.09674887855567249)"><path d="M190.08 10.57 C197.29 7.43, 205.53 6.82, 218.98 0.27 M192.37 11.85 C198.55 9.59, 203.55 6.18, 220.22 1.18" stroke="#000000" stroke-width="1" fill="none"></path></g><g transform="translate(351.36467837379155 224.82860891817904) rotate(0 110.48809712867501 -0.09674887855567249)"><path d="M190.02 -9.95 C197.31 -8.59, 205.56 -4.7, 218.98 0.27 M192.31 -8.68 C198.65 -6.63, 203.67 -5.74, 220.22 1.18" stroke="#000000" stroke-width="1" fill="none"></path></g></g><g transform="translate(354.5078125 183.64859589734647) rotate(0 86.5 17)"><text x="0" y="12" font-family="Virgil, Segoe UI Emoji" font-size="13.561929223744288px" fill="#000000" text-anchor="start" style="white-space: pre;" direction="ltr">Makes request to custom</text><text x="0" y="29" font-family="Virgil, Segoe UI Emoji" font-size="13.561929223744288px" fill="#000000" text-anchor="start" style="white-space: pre;" direction="ltr">content delivery URL</text></g><g transform="translate(131.431640625 130.1493093676661) rotate(0 34 8.5)"><text x="0" y="12" font-family="Virgil, Segoe UI Emoji" font-size="13.561929223744288px" fill="#000000" text-anchor="start" style="white-space: pre;" direction="ltr">Subscribes</text></g><g transform="translate(387.51171875 278.87515839734647) rotate(0 48 8.5)"><text x="0" y="12" font-family="Virgil, Segoe UI Emoji" font-size="13.561929223744288px" fill="#000000" text-anchor="start" style="white-space: pre;" direction="ltr">Validates sale</text></g><g stroke-linecap="round" transform="translate(10.507812500000114 356.10562714734647) rotate(0 350.23632812499994 116.294921875)"><path d="M0.37 0.07 C151.89 -0.94, 302.9 -1.63, 700 0.24 M-0.04 -0.08 C224.83 -1.03, 449.51 -0.74, 700.81 0.39 M700.2 -0.88 C702.2 46.49, 701.27 96.95, 701.79 233.57 M700.56 0.58 C700.09 82.59, 699.36 164.55, 700.81 232.56 M701.12 233.36 C489.72 234.56, 279.59 234.24, 0.19 233.21 M700.85 232.47 C456.09 230.95, 212.13 230.97, -0.14 232.74 M0.86 231.02 C2.41 170.38, 1.75 104.75, 0.85 0.35 M-0.8 233.07 C0.53 171.01, 1.39 110.13, 0.15 -0.63" stroke="#495057" stroke-width="1" fill="none"></path></g><g stroke-linecap="round" transform="translate(278.83203125 370.53922089734647) rotate(0 71.56640625 16.16015625)"><path d="M0.13 0.78 L143.83 -0.54 L142.55 33.93 L0.84 31.15" stroke="none" stroke-width="0" fill="#ced4da"></path><path d="M0.74 -1.98 C52.6 -2.2, 100.75 -0.29, 143.84 1.74 M-0.01 -0.03 C57.11 0.36, 113.25 -1.01, 143.95 0.77 M142.17 1.34 C144.94 10.67, 144.67 21.72, 144.41 31.12 M144.13 0.59 C143.22 11.06, 143.2 21.24, 142.66 31.98 M141.64 31.1 C90.85 34.05, 38.55 31.95, 1.42 33.31 M142.96 31.47 C100.13 31.69, 55.53 33.28, 0.94 32.59 M-1.01 31.67 C-1.65 24.15, 0.82 14.96, -1.56 1.61 M0.95 31.77 C0.16 23.83, 0.5 14.86, 0.86 0.95" stroke="transparent" stroke-width="1" fill="none"></path></g><g transform="translate(288.6015625 379.21500214734647) rotate(0 64.5 8.5)"><text x="0" y="12" font-family="Virgil, Segoe UI Emoji" font-size="13.561929223744288px" fill="#000000" text-anchor="start" style="white-space: pre;" direction="ltr">When sale is invalid</text></g><g stroke-linecap="round"><g transform="translate(570.27734375 543.9064083973465) rotate(0 -218.41526110254233 0.3502550444752046)"><path d="M-0.51 0.21 C-73.7 0.15, -365.25 -0.03, -438.26 -0.07 M1.43 -0.72 C-71.45 -0.61, -362.96 1.1, -435.88 1.42" stroke="#000000" stroke-width="1" fill="none"></path></g><g transform="translate(570.27734375 543.9064083973465) rotate(0 -218.41526110254233 0.3502550444752046)"><path d="M-407.39 -10.05 C-418.38 -6.72, -428.89 -1.52, -437.84 0.97 M-407.99 -8.08 C-417.37 -4.94, -427.14 -2.42, -436.76 0.61" stroke="#000000" stroke-width="1" fill="none"></path></g><g transform="translate(570.27734375 543.9064083973465) rotate(0 -218.41526110254233 0.3502550444752046)"><path d="M-407.29 10.47 C-418.36 6.12, -428.91 3.64, -437.84 0.97 M-407.89 12.44 C-417.47 8.24, -427.28 3.41, -436.76 0.61" stroke="#000000" stroke-width="1" fill="none"></path></g></g><g transform="translate(167.84375 520.0939083973465) rotate(0 47 8.5)"><text x="0" y="12" font-family="Virgil, Segoe UI Emoji" font-size="13.561929223744288px" fill="#000000" text-anchor="start" style="white-space: pre;" direction="ltr">Denies access</text></g><g stroke-linecap="round" transform="translate(10 590.7657833973465) rotate(0 351.357421875 479.0605468749999)"><path d="M-0.2 0.62 C255.14 1.4, 510.66 1.39, 702.69 0.14 M0.36 0.31 C205.34 0.21, 410.24 0.2, 702.39 -0.28 M702.34 0.59 C703.04 214.29, 703.05 428.96, 702.99 958.18 M702.74 -0.34 C702.63 331.36, 702.99 662.51, 702.44 957.89 M703.31 957.36 C452.1 959.85, 199.45 960.69, -0.2 958.4 M703.03 957.78 C526.82 956.78, 350.65 956.88, 0.01 958.35 M-0.4 958.68 C2.55 649.7, 2.85 340.38, -0.49 -0.59 M-0.27 957.78 C2.6 735.13, 2.12 512.24, 0.03 -0.23" stroke="#495057" stroke-width="1" fill="none"></path></g><g stroke-linecap="round" transform="translate(284.90625 610.4689083973465) rotate(0 71.56640625 16.16015625)"><path d="M-1.05 -1.19 L144.95 0.58 L141.51 34.07 L-0.56 31.72" stroke="none" stroke-width="0" fill="#ced4da"></path><path d="M-1.93 0.89 C37.38 1.24, 75.7 1.5, 143.03 0.5 M-0.11 0.04 C41.85 -0.22, 81.83 -1.18, 143.14 1 M144.84 -0.97 C143.06 7.98, 142.69 12.58, 142.4 33.56 M142.62 0.61 C143.58 11.41, 142.08 21.53, 143.18 32.33 M141.54 30.72 C105.05 34.43, 67.31 32.43, -1.37 32.44 M143.36 31.42 C113.23 32.78, 81.02 31.41, 0.33 32.49 M0.01 30.52 C0.05 25, 0.13 19.34, 1.46 0.43 M-0.13 32.48 C-0.93 24.04, -0.05 13.91, -0.97 -0.86" stroke="transparent" stroke-width="1" fill="none"></path></g><g stroke-linecap="round" transform="translate(341.57812500000045 426.95328339734647) rotate(0 119.05468749999955 39.84765625)"><path d="M-1.78 1.96 L237.1 0.16 L236.37 80.77 L0.92 78.88" stroke="none" stroke-width="0" fill="#ffff99"></path><path d="M0.3 -0.45 C71.85 0.05, 143.98 0.02, 237.17 -0.83 M-0.33 0.65 C54.91 -0.31, 109.59 0.27, 237.45 -0.56 M237.17 1.88 C236.17 31.88, 238.9 60.35, 237.25 78.82 M237.91 -0.33 C238.61 24.49, 237.01 50.26, 239.07 79.13 M237.59 79.14 C178.3 79.36, 119.75 80.51, -0.21 78.89 M237.67 79.72 C158.11 79.35, 76.53 80.35, -0.68 79.6 M1.61 78.39 C-2.38 47.58, 0.2 18.19, -1.08 0.48 M0.5 79.03 C0.19 61.58, 0.83 44.65, -0.66 0.92" stroke="#495057" stroke-width="1" fill="none"></path></g><g transform="translate(297.15625 619.4767208973465) rotate(0 59.5 8.5)"><text x="0" y="12" font-family="Virgil, Segoe UI Emoji" font-size="13.561929223744288px" fill="#000000" text-anchor="start" style="white-space: pre;" direction="ltr">When sale is valid</text></g><g transform="translate(359.12109375 440.85953339734647) rotate(0 103 25.5)"><text x="103" y="12" font-family="Virgil, Segoe UI Emoji" font-size="13.561929223744288px" fill="#000000" text-anchor="middle" style="white-space: pre;" direction="ltr">A sale can be invalid if</text><text x="103" y="29" font-family="Virgil, Segoe UI Emoji" font-size="13.561929223744288px" fill="#000000" text-anchor="middle" style="white-space: pre;" direction="ltr">it can't be found on Gumroad</text><text x="103" y="46" font-family="Virgil, Segoe UI Emoji" font-size="13.561929223744288px" fill="#000000" text-anchor="middle" style="white-space: pre;" direction="ltr">or if it's already been claimed.</text></g><g stroke-linecap="round"><g transform="translate(579.11328125 704.9630490223465) rotate(0 36.901553552726 16.214733865756898)"><path d="M0.16 -0.39 C10.92 -0.18, 54.11 -3.24, 65.4 2.03 C76.69 7.29, 79.01 26.04, 67.89 31.19 C56.78 36.33, 10.29 32.5, -1.27 32.9 M-1.22 -1.63 C9.38 -1.82, 53.5 -5.32, 64.84 0.39 C76.19 6.1, 77.78 27.09, 66.86 32.62 C55.94 38.14, 10.91 33.34, -0.68 33.56" stroke="#000000" stroke-width="1" fill="none"></path></g><g transform="translate(579.11328125 704.9630490223465) rotate(0 36.901553552726 16.214733865756898)"><path d="M27.27 25.73 C19 27.02, 7.3 32.27, -2.1 34.33 M27.77 25.07 C19.31 26.19, 11.63 28.79, -1.39 33.03" stroke="#000000" stroke-width="1" fill="none"></path></g><g transform="translate(579.11328125 704.9630490223465) rotate(0 36.901553552726 16.214733865756898)"><path d="M26.41 46.24 C18.32 39.98, 6.94 37.7, -2.1 34.33 M26.9 45.57 C18.76 40.83, 11.32 37.56, -1.39 33.03" stroke="#000000" stroke-width="1" fill="none"></path></g></g><g transform="translate(583.41796875 659.2716427723465) rotate(0 48.5 17)"><text x="0" y="12" font-family="Virgil, Segoe UI Emoji" font-size="13.561929223744288px" fill="#000000" text-anchor="start" style="white-space: pre;" direction="ltr">Validates user</text><text x="0" y="29" font-family="Virgil, Segoe UI Emoji" font-size="13.561929223744288px" fill="#000000" text-anchor="start" style="white-space: pre;" direction="ltr">session</text></g><g stroke-linecap="round" transform="translate(31.880859375 783.2306271473465) rotate(0 328.58203125 228.216796875)"><path d="M0.73 -0.01 C152.34 2.22, 303.14 3.11, 657.81 -0.47 M0.03 -0.02 C140.38 -1.21, 280.6 -0.86, 657.05 -0.12 M656.91 -0.69 C656.11 166.46, 655.78 334.24, 656.73 456.08 M657.45 0.24 C657.57 153.59, 657.33 307.47, 656.82 456.31 M657.7 456.98 C398.91 457.32, 139.39 457.89, -0.09 455.91 M656.88 456.18 C479.37 453.77, 302.13 454.28, 0.08 456.27 M0.67 457.35 C-1.24 328.38, -2.13 199.29, -0.91 -0.49 M0.27 456.11 C-1.3 319.32, -1.13 181.67, -0.32 0.03" stroke="#495057" stroke-width="1" fill="none"></path></g><g stroke-linecap="round" transform="translate(295.8828125 803.5665646473465) rotate(0 63.638671875 22.701171875)"><path d="M0.98 -0.01 L128.95 0.51 L127.58 46.69 L-1.26 46.31" stroke="none" stroke-width="0" fill="#ced4da"></path><path d="M0.15 -1.32 C33.84 -0.33, 69.23 0.25, 128.27 -0.4 M0.04 -0.3 C34.4 -0.66, 69.27 -2.07, 127.49 -0.61 M125.91 -0.68 C128.56 14.02, 127.88 27.36, 127.9 44.47 M128.19 0.37 C127 10.71, 128 21.13, 126.88 46.2 M125.55 45.66 C97.94 47.26, 68.04 47.53, -1.31 44.08 M126.8 46.35 C81.51 45.55, 34.97 45.26, 0.38 45.91 M-1.64 43.42 C1.08 28.29, 0.12 13.67, -1.37 -0.42 M0.67 46.05 C0.32 32.74, 0.07 19.74, -0.16 -0.38" stroke="transparent" stroke-width="1" fill="none"></path></g><g transform="translate(306.5078125 809.8712521473465) rotate(0 55.5 17)"><text x="55.5" y="12" font-family="Virgil, Segoe UI Emoji" font-size="13.561929223744288px" fill="#000000" text-anchor="middle" style="white-space: pre;" direction="ltr">When user is not</text><text x="55.5" y="29" font-family="Virgil, Segoe UI Emoji" font-size="13.561929223744288px" fill="#000000" text-anchor="middle" style="white-space: pre;" direction="ltr">logged in</text></g><g stroke-linecap="round"><g transform="translate(574.64453125 1041.6368771473465) rotate(0 -221.15176380403346 0.6204582137614807)"><path d="M0.6 -0.66 C-73.27 -0.52, -368.21 -0.25, -442.24 0.04 M-0.55 1.6 C-74.61 2.02, -369.48 1.99, -442.9 1.6" stroke="#495057" stroke-width="1" fill="none"></path></g><g transform="translate(574.64453125 1041.6368771473465) rotate(0 -221.15176380403346 0.6204582137614807)"><path d="M-415.79 -7.7 C-425.45 -5.86, -434.5 1.08, -441.28 1.43 M-414.25 -8.23 C-426.06 -3.36, -437.29 -0.45, -443.71 1.53" stroke="#495057" stroke-width="1" fill="none"></path></g><g transform="translate(574.64453125 1041.6368771473465) rotate(0 -221.15176380403346 0.6204582137614807)"><path d="M-415.84 12.83 C-425.34 6.83, -434.38 5.95, -441.28 1.43 M-414.3 12.29 C-426.04 9.11, -437.25 3.96, -443.71 1.53" stroke="#495057" stroke-width="1" fill="none"></path></g></g><g transform="translate(172.7421875 1004.1876583973465) rotate(0 57.5 17)"><text x="0" y="12" font-family="Virgil, Segoe UI Emoji" font-size="13.561929223744288px" fill="#000000" text-anchor="start" style="white-space: pre;" direction="ltr">Redirects to sign</text><text x="0" y="29" font-family="Virgil, Segoe UI Emoji" font-size="13.561929223744288px" fill="#000000" text-anchor="start" style="white-space: pre;" direction="ltr">up flow</text></g><g stroke-linecap="round"><g transform="translate(571.00390625 301.02359589734647) rotate(0 -108.93466066129508 -0.5899349960178029)"><path d="M-0.33 0.6 C-36.66 0.75, -182.24 0.47, -218.91 0.2 M1.7 -0.13 C-34.66 -0.3, -182.97 -1.81, -219.57 -1.82" stroke="#495057" stroke-width="1" fill="none"></path></g><g transform="translate(571.00390625 301.02359589734647) rotate(0 -108.93466066129508 -0.5899349960178029)"><path d="M-190.32 -11.01 C-197.37 -11.18, -205.7 -9, -219.41 -0.24 M-191.59 -12.12 C-200.54 -7.32, -210.86 -4.24, -220.21 -2.29" stroke="#495057" stroke-width="1" fill="none"></path></g><g transform="translate(571.00390625 301.02359589734647) rotate(0 -108.93466066129508 -0.5899349960178029)"><path d="M-190.44 9.51 C-197.34 4.75, -205.64 2.34, -219.41 -0.24 M-191.72 8.4 C-200.82 5.72, -211.1 1.33, -220.21 -2.29" stroke="#495057" stroke-width="1" fill="none"></path></g></g><g stroke-linecap="round"><g transform="translate(128.39453125 1112.2189083973465) rotate(0 221.4806499394029 0.6907886425406105)"><path d="M-0.17 0.99 C73.94 0.87, 370.9 0.08, 444.68 -0.06 M-1.72 0.46 C72.33 0.49, 369.9 1.27, 444.34 1.44" stroke="#495057" stroke-width="1" fill="none"></path></g><g transform="translate(128.39453125 1112.2189083973465) rotate(0 221.4806499394029 0.6907886425406105)"><path d="M417.77 13.56 C424.46 6.97, 433.23 4.92, 442.67 -0.23 M415.85 12.26 C424.65 8.81, 433.71 5.63, 443.87 1.96" stroke="#495057" stroke-width="1" fill="none"></path></g><g transform="translate(128.39453125 1112.2189083973465) rotate(0 221.4806499394029 0.6907886425406105)"><path d="M417.82 -6.96 C424.6 -7.37, 433.36 -3.26, 442.67 -0.23 M415.9 -8.26 C424.49 -5.42, 433.53 -2.31, 443.87 1.96" stroke="#495057" stroke-width="1" fill="none"></path></g></g><g transform="translate(163.7265625 1089.0860958973465) rotate(0 60.5 8.5)"><text x="0" y="12" font-family="Virgil, Segoe UI Emoji" font-size="13.561929223744288px" fill="#000000" text-anchor="start" style="white-space: pre;" direction="ltr">Signs up or logs in</text></g><g stroke-linecap="round"><g transform="translate(572.23046875 1208.5040646473465) rotate(0 -221.50432249717414 -0.15037703512587086)"><path d="M0.85 0.16 C-73.02 0.46, -369.66 0.76, -443.86 0.78 M-0.16 -0.81 C-73.58 -0.75, -367.84 -1.36, -441.49 -0.93" stroke="#495057" stroke-width="1" fill="none"></path></g><g transform="translate(572.23046875 1208.5040646473465) rotate(0 -221.50432249717414 -0.15037703512587086)"><path d="M-413.05 -12.3 C-419.13 -10.31, -427.01 -7.66, -440.78 0.51 M-413.66 -10.31 C-420.28 -9.36, -428.71 -5.42, -441.22 -0.67" stroke="#495057" stroke-width="1" fill="none"></path></g><g transform="translate(572.23046875 1208.5040646473465) rotate(0 -221.50432249717414 -0.15037703512587086)"><path d="M-413.02 8.23 C-418.93 5.09, -426.82 2.62, -440.78 0.51 M-413.63 10.21 C-420.44 5.63, -428.87 4.04, -441.22 -0.67" stroke="#495057" stroke-width="1" fill="none"></path></g></g><g transform="translate(142.109375 1159.4650021473465) rotate(0 95.5 17)"><text x="0" y="12" font-family="Virgil, Segoe UI Emoji" font-size="13.561929223744288px" fill="#000000" text-anchor="start" style="white-space: pre;" direction="ltr">Redirects back to </text><text x="0" y="29" font-family="Virgil, Segoe UI Emoji" font-size="13.561929223744288px" fill="#000000" text-anchor="start" style="white-space: pre;" direction="ltr">custom content delivery URL</text></g><g stroke-linecap="round" transform="translate(313.30859375000045 882.1993771473465) rotate(0 147.94335937499955 52.61328125)"><path d="M-1.6 -0.08 L295.04 -1.46 L294.34 106.17 L-1.33 104.12" stroke="none" stroke-width="0" fill="#ffff99"></path><path d="M0.45 -1.09 C115.49 -0.51, 230.98 -2.82, 296.16 0.64 M0.45 0.28 C104.3 -0.7, 207.14 -1.46, 296.29 -0.28 M293.91 -1.4 C295.64 29.56, 295.54 58.63, 296.95 103.31 M295.17 0.89 C295.28 39.06, 295.45 77.79, 295.68 105.3 M296.22 104.04 C222.15 107.69, 145.27 106.79, 1.47 105.78 M295.71 104.88 C192.92 105.88, 91.34 106.73, 0.42 105.94 M-1.34 104.77 C-0.26 68.43, 0.66 32.88, -0.06 -0.86 M0.5 105.09 C-0.27 68.35, 0.53 32.42, -0.98 0.07" stroke="#495057" stroke-width="1" fill="none"></path></g><g transform="translate(320.42578125 893.1212521473465) rotate(0 132 42.5)"><text x="132" y="12" font-family="Virgil, Segoe UI Emoji" font-size="13.561929223744288px" fill="#000000" text-anchor="middle" style="white-space: pre;" direction="ltr">The initial content delivery URL</text><text x="132" y="29" font-family="Virgil, Segoe UI Emoji" font-size="13.561929223744288px" fill="#000000" text-anchor="middle" style="white-space: pre;" direction="ltr">received from Gumroad is stored on</text><text x="132" y="46" font-family="Virgil, Segoe UI Emoji" font-size="13.561929223744288px" fill="#000000" text-anchor="middle" style="white-space: pre;" direction="ltr">the session, so when the user</text><text x="132" y="63" font-family="Virgil, Segoe UI Emoji" font-size="13.561929223744288px" fill="#000000" text-anchor="middle" style="white-space: pre;" direction="ltr">signs up/signs in they can be redirected</text><text x="132" y="80" font-family="Virgil, Segoe UI Emoji" font-size="13.561929223744288px" fill="#000000" text-anchor="middle" style="white-space: pre;" direction="ltr">back to it to complete the flow.</text></g><g stroke-linecap="round" transform="translate(285.599609375 1254.8185177723465) rotate(0 63.638671875 22.701171875)"><path d="M0.92 1.24 L127.42 0.86 L126.19 43.73 L1.02 45.46" stroke="none" stroke-width="0" fill="#ced4da"></path><path d="M0.39 0.53 C36.97 0.59, 75.32 0.31, 128.51 -0.24 M0.92 -0.14 C36.1 1.45, 73.75 2.01, 126.44 -0.01 M127.14 -0.55 C128.32 15.49, 128.64 28.39, 128.08 45.48 M126.65 0.51 C127.33 15.4, 127.02 30.8, 126.39 45.59 M125.47 46.23 C77.99 47.73, 31.28 47.93, -1.13 44.02 M126.67 44.91 C100.54 45.83, 74.34 44.75, -0.52 45.33 M1.29 44.27 C2.15 31.96, 1.48 21.34, 1.58 -0.94 M0.09 44.52 C-1.01 29.68, 0.36 13.85, 0.46 0.8" stroke="transparent" stroke-width="1" fill="none"></path></g><g transform="translate(310.224609375 1261.2442990223465) rotate(0 41.5 17)"><text x="41.5" y="12" font-family="Virgil, Segoe UI Emoji" font-size="13.561929223744288px" fill="#000000" text-anchor="middle" style="white-space: pre;" direction="ltr">When user is</text><text x="41.5" y="29" font-family="Virgil, Segoe UI Emoji" font-size="13.561929223744288px" fill="#000000" text-anchor="middle" style="white-space: pre;" direction="ltr">logged in</text></g><g stroke-linecap="round" transform="translate(31.5234375 1238.7638302723465) rotate(0 328.58203125 144.181640625)"><path d="M0.03 0.3 C237.17 -1.11, 472.65 -0.64, 656.94 0.04 M0.07 0.31 C158.18 2.66, 316.73 2.5, 656.89 0.26 M656.12 -1.36 C659.57 83.79, 657.86 166.81, 657.04 288.99 M657.11 -0.28 C655.1 96.62, 656.22 194.1, 657.83 287.8 M656.79 288.75 C423.96 290.85, 190.57 289.73, -0.76 288.42 M657.48 288.55 C431.98 289.59, 206.47 289.34, -0.34 288.57 M0.41 286.91 C2.65 200.29, 3.06 114.15, 1.5 -1.35 M0.27 288.22 C-2.33 224.6, -1.15 162.25, 0.33 -0.68" stroke="#495057" stroke-width="1" fill="none"></path></g><g stroke-linecap="round"><g transform="translate(577.044921875 1397.2150021473465) rotate(0 36.856040898093624 16.871644408275415)"><path d="M0.09 0.77 C10.9 0.97, 52.56 -2.92, 63.83 2.29 C75.09 7.51, 78.83 26.66, 67.67 32.06 C56.52 37.46, 8.47 34.26, -3.1 34.68 M-1.33 0.12 C9.96 0.54, 54.18 -4.23, 66.1 0.8 C78.02 5.82, 81.78 24.99, 70.18 30.29 C58.59 35.59, 8.74 31.75, -3.48 32.6" stroke="#000000" stroke-width="1" fill="none"></path></g><g transform="translate(577.044921875 1397.2150021473465) rotate(0 36.856040898093624 16.871644408275415)"><path d="M26.06 21.14 C20.88 23.46, 14.73 24.83, -1.94 32.87 M24.44 22.81 C13.92 25.4, 3.23 30.25, -2.94 32.17" stroke="#000000" stroke-width="1" fill="none"></path></g><g transform="translate(577.044921875 1397.2150021473465) rotate(0 36.856040898093624 16.871644408275415)"><path d="M25.92 41.66 C20.59 39.65, 14.47 36.67, -1.94 32.87 M24.3 43.33 C13.78 38.38, 3.14 35.68, -2.94 32.17" stroke="#000000" stroke-width="1" fill="none"></path></g></g><g transform="translate(579.09765625 1336.5587521473465) rotate(0 47.5 25.5)"><text x="0" y="12" font-family="Virgil, Segoe UI Emoji" font-size="13.561929223744288px" fill="#000000" text-anchor="start" style="white-space: pre;" direction="ltr">Claims sale</text><text x="0" y="29" font-family="Virgil, Segoe UI Emoji" font-size="13.561929223744288px" fill="#000000" text-anchor="start" style="white-space: pre;" direction="ltr">and activates</text><text x="0" y="46" font-family="Virgil, Segoe UI Emoji" font-size="13.561929223744288px" fill="#000000" text-anchor="start" style="white-space: pre;" direction="ltr">subscription</text></g><g stroke-linecap="round"><g transform="translate(575.29296875 1491.3868771473465) rotate(0 -223.7265885362774 -0.026853553578234823)"><path d="M-0.22 -1.06 C-74.59 -0.93, -371.81 0.74, -446.07 1 M-1.8 1 C-76.37 0.8, -373.1 -0.16, -447.23 -0.59" stroke="#495057" stroke-width="1" fill="none"></path></g><g transform="translate(575.29296875 1491.3868771473465) rotate(0 -223.7265885362774 -0.026853553578234823)"><path d="M-420.76 -11.41 C-426.03 -7.8, -435.59 -3.39, -446.64 -1.7 M-419.78 -10.89 C-426.81 -8.53, -433.72 -5.88, -447.89 -0.09" stroke="#495057" stroke-width="1" fill="none"></path></g><g transform="translate(575.29296875 1491.3868771473465) rotate(0 -223.7265885362774 -0.026853553578234823)"><path d="M-420.84 9.11 C-426.13 6.38, -435.66 4.45, -446.64 -1.7 M-419.86 9.63 C-426.78 6.86, -433.67 4.36, -447.89 -0.09" stroke="#495057" stroke-width="1" fill="none"></path></g></g><g transform="translate(166.78125 1460.6954708973465) rotate(0 53.5 8.5)"><text x="0" y="12" font-family="Virgil, Segoe UI Emoji" font-size="13.561929223744288px" fill="#000000" text-anchor="start" style="white-space: pre;" direction="ltr">Access granted!</text></g></svg>
